<svg width="28" height="27" viewBox="0 0 28 27" fill="none" xmlns="http://www.w3.org/2000/svg">
<path d="M14.8168 16.2476L20.915 25.1918M12.0133 16.2476L5.91505 25.1918M15.915 14.1919C15.915 15.5725 14.7958 16.6919 13.415 16.6919C12.0343 16.6919 10.915 15.5725 10.915 14.1919C10.915 12.8111 12.0343 11.6919 13.415 11.6919C14.7958 11.6919 15.915 12.8111 15.915 14.1919ZM19.8507 3.35719L5.12031 7.30418C4.78221 7.39478 4.61315 7.44007 4.50165 7.54048C4.40356 7.62879 4.33595 7.74589 4.30851 7.87499C4.27731 8.02177 4.32261 8.19082 4.4132 8.52893L5.51319 12.6341C5.60379 12.9723 5.64907 13.1413 5.74949 13.2528C5.8378 13.3509 5.9549 13.4185 6.084 13.4459C6.23077 13.4771 6.39982 13.4318 6.73792 13.3413L21.4683 9.39423L19.8507 3.35719ZM25.6555 9.56636C24.3032 9.92874 23.6269 10.1099 23.0398 9.98514C22.5234 9.87537 22.055 9.60494 21.7018 9.21259C21.3002 8.76657 21.1189 8.09036 20.7565 6.73793L20.5624 6.01348C20.2 4.66107 20.0189 3.98486 20.1437 3.39777C20.2534 2.88136 20.5239 2.41296 20.9162 2.05969C21.3623 1.65808 22.0384 1.47689 23.3909 1.11451C23.7289 1.02391 23.898 0.978618 24.0448 1.00981C24.1739 1.03726 24.291 1.10486 24.3793 1.20294C24.4797 1.31446 24.525 1.48351 24.6157 1.82162L26.3627 8.34162C26.4533 8.67972 26.4985 8.84877 26.4673 8.99554C26.4399 9.12464 26.3723 9.24174 26.2742 9.33007C26.1627 9.43047 25.9937 9.47577 25.6555 9.56636ZM2.79219 13.1044L4.48255 12.6515C4.82066 12.5609 4.98971 12.5155 5.10122 12.4151C5.19931 12.3269 5.26691 12.2098 5.29436 12.0806C5.32555 11.9339 5.28026 11.7648 5.18966 11.4268L4.73672 9.73633C4.64614 9.39823 4.60084 9.22917 4.50044 9.11767C4.41211 9.01958 4.29501 8.95197 4.16591 8.92453C4.01914 8.89333 3.85009 8.93863 3.51199 9.02923L1.82161 9.48216C1.48351 9.57276 1.31445 9.61806 1.20295 9.71846C1.10486 9.80677 1.03725 9.92387 1.00981 10.053C0.978611 10.1998 1.02391 10.3688 1.11451 10.7069L1.56744 12.3973C1.65804 12.7354 1.70334 12.9044 1.80374 13.0159C1.89205 13.114 2.00915 13.1816 2.13826 13.2091C2.28502 13.2403 2.45407 13.195 2.79219 13.1044Z" stroke="#B3B3B3" stroke-width="2" stroke-linecap="round" stroke-linejoin="round"/>
</svg>
